<svg width="540" height="322" xmlns="http://www.w3.org/2000/svg" xmlns:xlink="http://www.w3.org/1999/xlink" overflow="hidden"><defs><clipPath id="clip0"><rect x="58" y="11" width="540" height="322"/></clipPath></defs><g clip-path="url(#clip0)" transform="translate(-58 -11)"><path d="M124.5 71.5001 124.5 299.876" stroke="#4472C4" stroke-width="0.666667" stroke-miterlimit="8" fill="none" fill-rule="evenodd"/><path d="M124.5 12.5001 124.5 299.35" stroke="#000000" stroke-width="1.33333" stroke-miterlimit="8" fill="none" fill-rule="evenodd"/><path d="M124.5 299.5 480.294 299.5" stroke="#000000" stroke-width="1.33333" stroke-miterlimit="8" fill="none" fill-rule="evenodd"/><path d="M0 3C-3.8194e-16 1.34315 1.34315 -3.8194e-16 3 -7.6388e-16 4.65685-1.52776e-15 6 1.34315 6 3 6 4.65685 4.65685 6 3 6 1.34315 6-1.9097e-15 4.65685 0 3Z" stroke="#AE5A21" stroke-width="1.33333" stroke-miterlimit="8" fill="#ED7D31" fill-rule="evenodd" transform="matrix(1 0 0 -1 205.5 121.5)"/><path d="M0 0 266.986 216.907" stroke="#4472C4" stroke-width="0.666667" stroke-miterlimit="8" stroke-dasharray="2.66667 2" fill="none" fill-rule="evenodd" transform="matrix(1 0 0 -1 124.5 280.407)"/><path d="M0 3C-3.18283e-16 1.34315 1.11929 -3.8194e-16 2.5 -7.6388e-16 3.88071-1.52776e-15 5 1.34315 5 3 5 4.65685 3.88071 6 2.5 6 1.11929 6-1.59142e-15 4.65685 0 3Z" stroke="#AE5A21" stroke-width="1.33333" stroke-miterlimit="8" fill="#ED7D31" fill-rule="evenodd" transform="matrix(1 0 0 -1 169.5 202.5)"/><path d="M0 3.5C-3.8194e-16 1.567 1.34315 -4.45597e-16 3 -8.91193e-16 4.65685-1.78239e-15 6 1.567 6 3.5 6 5.433 4.65685 7 3 7 1.34315 7-1.9097e-15 5.433 0 3.5Z" stroke="#AE5A21" stroke-width="1.33333" stroke-miterlimit="8" fill="#ED7D31" fill-rule="evenodd" transform="matrix(1 0 0 -1 223.5 270.5)"/><path d="M0 3.5C-3.8194e-16 1.567 1.34315 -4.45597e-16 3 -8.91193e-16 4.65685-1.78239e-15 6 1.567 6 3.5 6 5.433 4.65685 7 3 7 1.34315 7-1.9097e-15 5.433 0 3.5Z" stroke="#AE5A21" stroke-width="1.33333" stroke-miterlimit="8" fill="#ED7D31" fill-rule="evenodd" transform="matrix(1 0 0 -1 264.5 189.5)"/><path d="M0 3.5C-3.8194e-16 1.567 1.34315 -4.45597e-16 3 -8.91193e-16 4.65685-1.78239e-15 6 1.567 6 3.5 6 5.433 4.65685 7 3 7 1.34315 7-1.9097e-15 5.433 0 3.5Z" stroke="#AE5A21" stroke-width="1.33333" stroke-miterlimit="8" fill="#ED7D31" fill-rule="evenodd" transform="matrix(1 0 0 -1 256.5 129.5)"/><path d="M0 3.5C-3.8194e-16 1.567 1.34315 -4.45597e-16 3 -8.91193e-16 4.65685-1.78239e-15 6 1.567 6 3.5 6 5.433 4.65685 7 3 7 1.34315 7-1.9097e-15 5.433 0 3.5Z" stroke="#AE5A21" stroke-width="1.33333" stroke-miterlimit="8" fill="#ED7D31" fill-rule="evenodd" transform="matrix(1 0 0 -1 327.5 164.5)"/><path d="M0 3.5C-3.8194e-16 1.567 1.34315 -4.45597e-16 3 -8.91193e-16 4.65685-1.78239e-15 6 1.567 6 3.5 6 5.433 4.65685 7 3 7 1.34315 7-1.9097e-15 5.433 0 3.5Z" stroke="#AE5A21" stroke-width="1.33333" stroke-miterlimit="8" fill="#ED7D31" fill-rule="evenodd" transform="matrix(1 0 0 -1 372.5 115.5)"/><path d="M0 3.5C-3.8194e-16 1.567 1.34315 -4.45597e-16 3 -8.91193e-16 4.65685-1.78239e-15 6 1.567 6 3.5 6 5.433 4.65685 7 3 7 1.34315 7-1.9097e-15 5.433 0 3.5Z" stroke="#AE5A21" stroke-width="1.33333" stroke-miterlimit="8" fill="#ED7D31" fill-rule="evenodd" transform="matrix(1 0 0 -1 319.5 78.5001)"/><path d="M226.5 197.5 226.5 265.606" stroke="#000000" stroke-width="0.666667" stroke-miterlimit="8" stroke-dasharray="5.33333 2 0.666667 2 0.666667 2" fill="none" fill-rule="evenodd"/><path d="M208.5 121.5 208.5 212.199" stroke="#000000" stroke-width="0.666667" stroke-miterlimit="8" stroke-dasharray="5.33333 2 0.666667 2 0.666667 2" fill="none" fill-rule="evenodd"/><path d="M171.5 204.5 171.5 242.288" stroke="#000000" stroke-width="0.666667" stroke-miterlimit="8" stroke-dasharray="5.33333 2 0.666667 2 0.666667 2" fill="none" fill-rule="evenodd"/><path d="M258.5 131.5 258.5 169.288" stroke="#000000" stroke-width="0.666667" stroke-miterlimit="8" stroke-dasharray="5.33333 2 0.666667 2 0.666667 2" fill="none" fill-rule="evenodd"/><path d="M330.5 115.5 330.5 153.288" stroke="#000000" stroke-width="0.666667" stroke-miterlimit="8" stroke-dasharray="5.33333 2 0.666667 2 0.666667 2" fill="none" fill-rule="evenodd"/><path d="M375.5 78.5001 375.5 108.518" stroke="#000000" stroke-width="0.666667" stroke-miterlimit="8" stroke-dasharray="5.33333 2 0.666667 2 0.666667 2" fill="none" fill-rule="evenodd"/><path d="M322.5 78.5001 322.5 118.211" stroke="#000000" stroke-width="0.666667" stroke-miterlimit="8" stroke-dasharray="5.33333 2 0.666667 2 0.666667 2" fill="none" fill-rule="evenodd"/><path d="M267.5 165.5 267.5 184.789" stroke="#000000" stroke-width="0.666667" stroke-miterlimit="8" stroke-dasharray="5.33333 2 0.666667 2 0.666667 2" fill="none" fill-rule="evenodd"/><text font-family="Arial,Arial_MSFontService,sans-serif" font-weight="400" font-size="16" transform="translate(232.207 319)">Independent <tspan font-size="16" x="93" y="0">variable (X)</tspan></text><text font-family="Arial,Arial_MSFontService,sans-serif" font-weight="400" font-size="16" transform="matrix(-1.83697e-16 -1 1 -1.83697e-16 117.226 209)">Dependent <tspan font-size="16" x="82" y="1.50632e-14">variable (y)</tspan></text><path d="M422.5 44.5001 460.704 44.5002" stroke="#4472C4" stroke-width="0.666667" stroke-miterlimit="8" stroke-dasharray="2.66667 2" fill="none" fill-rule="evenodd"/><text font-family="Arial,Arial_MSFontService,sans-serif" font-weight="400" font-size="11" transform="translate(467.31 50)">Regression line</text><path d="M0 3C-3.8194e-16 1.34315 1.34315 -3.8194e-16 3 -7.6388e-16 4.65685-1.52776e-15 6 1.34315 6 3 6 4.65685 4.65685 6 3 6 1.34315 6-1.9097e-15 4.65685 0 3Z" stroke="#AE5A21" stroke-width="1.33333" stroke-miterlimit="8" fill="#ED7D31" fill-rule="evenodd" transform="matrix(1 0 0 -1 452.5 69.5001)"/><text font-family="Arial,Arial_MSFontService,sans-serif" font-weight="400" font-size="11" transform="translate(467.31 71)">Actual data</text><path d="M425.5 93.5001 463.704 93.5002" stroke="#000000" stroke-width="0.666667" stroke-miterlimit="8" stroke-dasharray="5.33333 2 0.666667 2 0.666667 2" fill="none" fill-rule="evenodd"/><text font-family="Arial,Arial_MSFontService,sans-serif" font-weight="400" font-size="11" transform="translate(467.31 99)">Residuals (error) <tspan font-size="11" x="0" y="13">(distance between </tspan><tspan font-size="11" x="0" y="26">regression line and </tspan><tspan font-size="11" x="0" y="39">actual data)</tspan><tspan font-size="11" x="-398.638" y="185">y</tspan><tspan font-size="11" x="-393.304" y="185">-</tspan>intercept</text></g></svg>